<!--?xml version="1.0" standalone="no"?-->

<svg version="1.0" xmlns="http://www.w3.org/2000/svg" width="300.000000pt" height="300.000000pt" viewBox="0 0 300.000000 300.000000" preserveAspectRatio="xMidYMid meet">
<g transform="translate(0.000000,300.000000) scale(0.100000,-0.100000)" fill="#0B0B0B" stroke="none">
<path class="node" id="node1" d="M2400 2960 c-103 -15 -329 -73 -385 -99 -11 -5 -49 -22 -85 -37 -36
-16 -106 -51 -155 -80 l-91 -52 -59 10 c-64 10 -221 4 -320 -13 -382 -66 -727
-348 -881 -718 -63 -151 -96 -325 -93 -500 l1 -117 -57 -85 c-54 -79 -145
-250 -160 -301 -4 -12 -13 -36 -20 -53 -46 -103 -75 -257 -75 -396 0 -131 13
-196 53 -272 169 -321 661 -327 1199 -15 l73 42 165 2 c175 2 250 15 405 70
362 129 644 449 745 845 22 84 41 277 34 347 -3 38 3 56 49 136 117 206 186
376 233 574 19 84 24 130 24 240 0 121 -3 146 -27 217 -23 71 -34 87 -92 145
-54 54 -78 69 -134 88 -78 26 -242 36 -347 22z m314 -151 c65 -26 90 -50 122
-118 137 -289 -110 -931 -560 -1455 -414 -482 -991 -909 -1416 -1046 -154 -50
-233 -63 -345 -58 -56 3 -110 10 -121 15 -10 6 -39 20 -64 32 -101 49 -152
120 -175 244 -15 80 -15 96 0 194 8 59 27 142 40 184 38 121 147 349 166 349
8 0 17 -30 35 -105 4 -16 10 -34 14 -40 26 -36 29 -77 10 -133 -75 -219 -26
-419 119 -480 73 -32 128 -36 222 -17 276 54 599 232 969 534 393 321 726 794
857 1216 30 96 42 267 24 333 -15 53 -68 114 -125 142 -84 40 -229 36 -368
-11 l-57 -19 -58 29 c-33 17 -71 33 -86 36 -15 4 -27 11 -27 16 0 22 252 122
360 143 19 4 46 12 60 17 85 32 319 31 404 -2z m-1031 -249 c158 -28 260 -68
392 -154 97 -64 172 -130 237 -211 62 -77 60 -73 86 -117 l23 -37 -54 -113
c-251 -529 -717 -999 -1280 -1294 l-128 -66 -42 28 c-67 43 -194 172 -252 255
-131 185 -205 413 -205 632 0 267 91 520 258 717 167 198 390 325 638 364 125
19 203 19 327 -4z m734 -75 c67 -33 87 -88 71 -195 -6 -38 -14 -70 -18 -70 -4
0 -20 17 -36 38 -34 45 -194 202 -206 202 -4 0 -8 4 -8 9 0 29 147 41 197 16z
m136 -1162 c-8 -63 -43 -184 -71 -253 -88 -215 -248 -402 -443 -516 -110 -65
-174 -91 -303 -124 -80 -20 -156 -26 -156 -12 0 4 29 27 63 52 252 180 622
533 801 763 55 70 103 127 107 127 4 0 5 -17 2 -37z m-1988 -565 c10 -18 65
-80 122 -137 57 -57 102 -106 99 -108 -2 -2 -31 -8 -64 -13 -142 -20 -202 33
-202 177 0 70 7 113 19 113 4 0 15 -15 26 -32z"></path>
</g>
<g transform="translate(0.000000,300.000000) scale(0.100000,-0.100000)" fill="#A1A1A1" stroke="none">

<path class="node" id="node3" d="M2415 2830 c-44 -5 -91 -14 -105 -19 -14 -5 -41 -13 -60 -17 -108
-21 -360 -121 -360 -143 0 -5 12 -12 27 -16 15 -3 53 -19 86 -36 l58 -29 57
19 c196 66 358 48 446 -49 48 -53 59 -103 53 -230 -20 -391 -416 -1017 -887
-1401 -293 -239 -587 -418 -810 -493 -264 -88 -413 -63 -498 87 -47 82 -48
235 -2 369 19 56 16 97 -10 133 -4 6 -10 24 -14 40 -18 75 -27 105 -35 105
-19 0 -128 -228 -166 -349 -13 -42 -32 -125 -40 -184 -15 -98 -15 -114 0 -194
23 -124 74 -195 175 -244 25 -12 54 -26 64 -32 39 -19 218 -21 302 -2 281 62
567 207 904 459 240 180 482 405 676 632 450 524 697 1166 560 1455 -14 30
-36 65 -48 76 -60 56 -210 81 -373 63z"></path>
<path class="node" id="node4" d="M1356 2564 c-193 -30 -372 -114 -522 -245 -423 -370 -496 -1005 -169
-1468 58 -83 185 -212 252 -255 l42 -28 128 66 c563 295 1029 765 1280 1294
l54 113 -23 37 c-26 44 -24 40 -86 117 -116 144 -281 258 -474 329 -68 25
-253 56 -328 55 -36 -1 -105 -8 -154 -15z"></path>


<path class="node" id="node7" d="M2444 1233 c-179 -230 -549 -583 -801 -763 -34 -25 -63 -48 -63 -52
0 -14 76 -8 156 12 129 33 193 59 303 124 195 114 355 301 443 516 43 105 87
290 69 290 -4 0 -52 -57 -107 -127z"></path>

</g>
</svg>